#N canvas 261 129 973 687 10;
#N canvas 0 22 450 300 (subpatch) 0;
#X array env 4100 float 2;
#X coords 0 1 4100 -1 200 140 1;
#X restore 651 -175 graph;
#X obj 665 62 soundfiler;
#X obj 665 4 openpanel;
#X obj 665 -22 bng 15 250 50 0 empty empty load_env 17 7 0 10 -4032
-1 -1;
#X obj 137 241 *~ 0.2;
#X obj 182 241 *~ 0.2;
#X obj 151 340 dac~ 1 2;
#X floatatom 208 218 5 0 0 0 - - -;
#X obj 132 141 bufGranul~ snd env 2;
#N canvas 0 22 450 300 (subpatch) 0;
#X array snd 441000 float 2;
#X coords 0 1 441000 -1 200 140 1;
#X restore 430 -175 graph;
#X obj 9 21 metro 100;
#X obj 665 34 sprintf read -resize %s env;
#X obj 9 -4 tgl 15 0 empty empty empty 17 7 0 10 -4034 -1 -1 0 1;
#X floatatom 60 -4 5 0 0 0 - - -;
#X obj 151 306 *~ 0.2;
#X obj 196 306 *~ 0.2;
#X floatatom 255 246 5 0 0 0 - - -;
#X obj 279 303 hsl 128 15 0 127 0 0 empty empty empty -2 -8 0 10 -258113
-1 -1 0 1;
#X obj 271 325 dbtorms;
#X obj 119 276 overdrive~;
#X obj 192 277 overdrive~;
#X obj 212 333 env~;
#X floatatom 212 361 5 0 0 0 - - -;
#X obj 446 61 soundfiler;
#X obj 446 3 openpanel;
#X obj 446 -23 bng 15 250 50 0 empty empty load_snd 17 7 0 10 -4032
-1 -1;
#X obj 446 33 sprintf read -resize %s snd;
#X floatatom 101 71 7 0 0 2 begin - -;
#X floatatom 156 73 7 0 0 2 detune - -;
#X floatatom 210 73 7 0 0 2 amp - -;
#X floatatom 265 73 7 0 0 2 length - -;
#X floatatom 325 74 7 0 0 2 pan - -;
#X floatatom 382 75 7 0 0 2 dist - -;
#X obj 101 -81 vsl 15 128 0 5000 0 0 empty empty empty 0 -9 0 10 -262144
-1 -1 5300 1;
#X obj 156 -79 vsl 15 128 0.04 16 1 0 empty empty empty 0 -9 0 10 -262144
-1 -1 7000 1;
#X obj 210 -79 vsl 15 128 0.04 2 1 0 empty empty empty 0 -9 0 10 -262144
-1 -1 6300 1;
#X obj 265 -79 vsl 15 128 2 2000 1 0 empty empty empty 0 -9 0 10 -262144
-1 -1 8600 1;
#X obj 325 -79 vsl 15 128 0.01 1 1 0 empty empty empty 0 -9 0 10 -262144
-1 -1 0 1;
#X obj 382 -79 vsl 15 128 0.01 1 1 0 empty empty empty 0 -9 0 10 -262144
-1 -1 0 1;
#X connect 2 0 11 0;
#X connect 3 0 2 0;
#X connect 4 0 19 0;
#X connect 5 0 20 0;
#X connect 7 0 4 1;
#X connect 7 0 5 1;
#X connect 8 0 4 0;
#X connect 8 1 5 0;
#X connect 10 0 8 0;
#X connect 11 0 1 0;
#X connect 12 0 10 0;
#X connect 13 0 10 1;
#X connect 14 0 6 0;
#X connect 15 0 6 1;
#X connect 15 0 21 0;
#X connect 16 0 20 0;
#X connect 16 0 19 0;
#X connect 17 0 18 0;
#X connect 18 0 14 1;
#X connect 18 0 15 1;
#X connect 19 0 14 0;
#X connect 20 0 15 0;
#X connect 21 0 22 0;
#X connect 24 0 26 0;
#X connect 25 0 24 0;
#X connect 26 0 23 0;
#X connect 27 0 8 1;
#X connect 28 0 8 2;
#X connect 29 0 8 3;
#X connect 30 0 8 4;
#X connect 31 0 8 5;
#X connect 32 0 8 6;
#X connect 33 0 27 0;
#X connect 34 0 28 0;
#X connect 35 0 29 0;
#X connect 36 0 30 0;
#X connect 37 0 31 0;
#X connect 38 0 32 0;
