#N canvas 0 22 515 362 10;
#X obj 263 51 inlet lo;
#X obj 325 54 inlet hi;
#X obj 152 49 inlet bang;
#X obj 154 299 outlet;
#X obj 150 112 random 500;
#X obj 149 144 / 500;
#X obj 303 107 t b f;
#X obj 223 211 *;
#X obj 222 244 + \$1;
#X obj 235 17 loadbang;
#X obj 149 174 pow 5;
#X obj 425 103 exp;
#X floatatom 431 73 5 0 0 0 - - -;
#X floatatom 419 126 5 0 0 0 - - -;
#X obj 432 43 inlet pow;
#X obj 238 83 \$3;
#X obj 231 105 \$2;
#X obj 260 139 - \$1;
#X connect 0 0 6 0;
#X connect 0 0 8 1;
#X connect 1 0 17 0;
#X connect 2 0 4 0;
#X connect 4 0 5 0;
#X connect 5 0 10 0;
#X connect 6 0 17 0;
#X connect 6 1 17 1;
#X connect 7 0 8 0;
#X connect 8 0 3 0;
#X connect 9 0 15 0;
#X connect 9 0 16 0;
#X connect 10 0 7 0;
#X connect 11 0 13 0;
#X connect 12 0 11 0;
#X connect 13 0 10 1;
#X connect 14 0 12 0;
#X connect 15 0 11 0;
#X connect 16 0 17 0;
#X connect 17 0 7 1;
