#N canvas 281 120 1159 728 10;
#N canvas 0 22 450 300 (subpatch) 0;
#X array env 4100 float 2;
#X coords 0 1 4100 -1 200 140 1;
#X restore 785 122 graph;
#X obj 839 414 soundfiler;
#X obj 839 301 openpanel;
#X obj 839 278 bng 15 250 50 0 empty empty load_env 17 7 0 10 -4032
-1 -1;
#X obj 137 241 *~ 0.2;
#X obj 182 241 *~ 0.2;
#X obj 117 410 dac~ 1 2;
#X floatatom 208 218 5 0 0 0 - - -;
#N canvas 0 22 450 300 (subpatch) 0;
#X array snd 239360 float 2;
#X coords 0 1 239360 -1 200 140 1;
#X restore 430 -175 graph;
#X obj 10 -95 metro 100;
#X obj 839 331 sprintf read -resize %s env;
#X obj 10 -120 tgl 15 0 empty empty empty 17 7 0 10 -4034 -1 -1 0 1
;
#X floatatom 61 -122 5 0 0 0 - - -;
#X obj 117 376 *~ 0.2;
#X obj 162 376 *~ 0.2;
#X floatatom 22 237 5 0 0 0 - - -;
#X obj 651 306 hsl 128 15 0 127 0 0 empty empty empty -2 -8 0 10 -258113
-1 -1 9800 1;
#X obj 648 333 dbtorms;
#X obj 178 403 env~;
#X floatatom 178 431 5 0 0 0 - - -;
#X obj 475 61 soundfiler;
#X obj 475 3 openpanel;
#X obj 475 -23 bng 15 250 50 0 empty empty load_snd 17 7 0 10 -4032
-1 -1;
#X obj 475 33 sprintf read -resize %s snd;
#X floatatom 101 71 7 0 0 2 freq freq -;
#X floatatom 156 73 7 0 0 2 detune detune -;
#X floatatom 210 73 7 0 0 2 amp amp -;
#X floatatom 265 73 7 0 0 2 length length -;
#X floatatom 325 74 7 0 0 2 pan pan -;
#X floatatom 382 75 7 0 0 2 dist dist -;
#X obj 101 -81 vsl 15 128 20 20000 1 0 freq empty empty 0 -9 0 10 -262144
-1 -1 2200 1;
#X obj 156 -79 vsl 15 128 0.04 16 1 0 detune empty empty 0 -9 0 10
-262144 -1 -1 0 1;
#X obj 210 -79 vsl 15 128 0.04 2 1 0 amp empty empty 0 -9 0 10 -262144
-1 -1 9600 1;
#X obj 265 -79 vsl 15 128 2 5000 1 0 length empty empty 0 -9 0 10 -262144
-1 -1 5300 1;
#X obj 325 -79 vsl 15 128 0.01 1 0 0 pan empty empty 0 -9 0 10 -262144
-1 -1 0 1;
#X obj 382 -79 vsl 15 128 0.01 1 0 0 dist empty empty 0 -9 0 10 -262144
-1 -1 0 1;
#X obj 22 184 loadbang 1;
#X msg 22 210 1;
#N canvas 457 89 687 610 realtime 0;
#X obj 175 -145 adc~;
#N canvas 0 22 450 300 (subpatch) 0;
#X array recbuffer 441000 float 2;
#X coords 0 1 441000 -1 200 140 1;
#X restore 374 -148 graph;
#X obj 213 -135 loadbang;
#X msg 213 -100 loop 1 \, 1;
#X obj 51 61 metro 100;
#X obj 51 36 tgl 15 0 empty empty empty 17 7 0 10 -4034 -1 -1 0 1;
#X floatatom 102 36 5 0 0 0 - - -;
#X obj 175 -35 record~ recbuffer;
#X obj 167 320 dac~ 1 2;
#X obj 167 286 *~ 0.2;
#X obj 212 286 *~ 0.2;
#X obj 295 283 hsl 128 15 0 127 0 0 empty empty empty -2 -8 0 10 -258113
-1 -1 0 1;
#X obj 287 305 dbtorms;
#X obj 228 313 env~;
#X floatatom 228 341 5 0 0 0 - - -;
#X obj 160 224 bufGranul~ recbuffer env 2;
#X obj 176 172 -~ 100;
#X floatatom 257 165 7 0 0 2 detune - -;
#X floatatom 311 165 7 0 0 2 amp - -;
#X floatatom 366 165 7 0 0 2 length - -;
#X floatatom 426 166 7 0 0 2 pan - -;
#X floatatom 483 167 7 0 0 2 dist - -;
#X obj 257 13 vsl 15 128 0.04 16 1 0 empty empty empty 0 -9 0 10 -262144
-1 -1 0 1;
#X obj 311 13 vsl 15 128 0.04 2 1 0 empty empty empty 0 -9 0 10 -262144
-1 -1 0 1;
#X obj 366 13 vsl 15 128 2 2000 1 0 empty empty empty 0 -9 0 10 -262144
-1 -1 0 1;
#X obj 426 13 vsl 15 128 0.01 1 0 0 empty empty empty 0 -9 0 10 -262144
-1 -1 0 1;
#X obj 483 13 vsl 15 128 0.01 1 0 0 empty empty empty 0 -9 0 10 -262144
-1 -1 0 1;
#X obj 185 96 snapshot~;
#X obj 204 75 metro 10;
#X floatatom 185 123 10 0 0 0 - - -;
#X obj 204 55 tgl 15 0 empty empty empty 0 -6 0 8 -262144 -1 -1 1 1
;
#X msg 275 -99 1;
#X obj 175 -9 /~ 44.1;
#X connect 0 0 7 0;
#X connect 2 0 3 0;
#X connect 2 0 31 0;
#X connect 3 0 7 0;
#X connect 4 0 15 0;
#X connect 5 0 4 0;
#X connect 6 0 4 1;
#X connect 7 0 32 0;
#X connect 9 0 8 0;
#X connect 10 0 8 1;
#X connect 10 0 13 0;
#X connect 11 0 12 0;
#X connect 12 0 9 1;
#X connect 12 0 10 1;
#X connect 13 0 14 0;
#X connect 15 0 9 0;
#X connect 15 1 10 0;
#X connect 16 0 15 1;
#X connect 17 0 15 2;
#X connect 18 0 15 3;
#X connect 19 0 15 4;
#X connect 20 0 15 5;
#X connect 21 0 15 6;
#X connect 22 0 17 0;
#X connect 23 0 18 0;
#X connect 24 0 19 0;
#X connect 25 0 20 0;
#X connect 26 0 21 0;
#X connect 27 0 29 0;
#X connect 28 0 27 0;
#X connect 30 0 28 0;
#X connect 31 0 30 0;
#X connect 32 0 16 0;
#X connect 32 0 27 0;
#X restore 285 -140 pd realtime;
#N canvas 502 413 858 264 random 1;
#X obj 194 -93 r metro;
#X obj 194 -40 spigot;
#X obj 227 -71 tgl 15 0 empty empty empty 17 7 0 10 -4034 -1 -1 0 1
;
#X floatatom 225 -13 5 0 0 0 - - -;
#X floatatom 267 -14 5 0 0 0 - - -;
#X obj 40 -91 r metro;
#X obj 40 -38 spigot;
#X obj 73 -69 tgl 15 0 empty empty empty 17 7 0 10 -4034 -1 -1 0 1
;
#X floatatom 71 -11 5 0 0 0 - - -;
#X floatatom 113 -12 5 0 0 0 - - -;
#X obj 40 99 send metro-speed;
#X floatatom 40 61 5 0 0 0 - - -;
#X floatatom 194 59 5 0 0 0 - - -;
#X obj 328 -94 r metro;
#X obj 328 -41 spigot;
#X obj 361 -72 tgl 15 0 empty empty empty 17 7 0 10 -4034 -1 -1 0 1
;
#X floatatom 359 -14 5 0 0 0 - - -;
#X floatatom 401 -15 5 0 0 0 - - -;
#X floatatom 328 58 5 0 0 0 - - -;
#X obj 328 95 send detune;
#X obj 460 -94 r metro;
#X obj 460 -41 spigot;
#X obj 493 -72 tgl 15 0 empty empty empty 17 7 0 10 -4034 -1 -1 0 1
;
#X floatatom 491 -14 5 0 0 0 - - -;
#X floatatom 533 -15 5 0 0 0 - - -;
#X floatatom 460 58 5 0 0 0 - - -;
#X obj 460 95 send amp;
#X obj 587 -93 r metro;
#X obj 587 -40 spigot;
#X obj 620 -71 tgl 15 0 empty empty empty 17 7 0 10 -4034 -1 -1 0 1
;
#X floatatom 618 -13 5 0 0 0 - - -;
#X floatatom 660 -14 5 0 0 0 - - -;
#X floatatom 587 59 5 0 0 0 - - -;
#X obj 587 96 send length;
#X obj 712 -94 r metro;
#X obj 712 -41 spigot;
#X obj 745 -72 tgl 15 0 empty empty empty 17 7 0 10 -4034 -1 -1 0 1
;
#X floatatom 743 -14 5 0 0 0 - - -;
#X floatatom 785 -15 5 0 0 0 - - -;
#X floatatom 712 58 10 0 0 0 - - -;
#X obj 712 95 send pan;
#X obj 41 21 randomp 2 1000 3;
#X obj 328 18 randomp 0.1 6 1.5;
#X obj 460 18 randomp 0 2 2;
#X obj 587 19 randomp 2 2000 2;
#X obj 194 19 randomp 0 1000 1;
#X obj 712 18 randomp 0 1 1;
#X floatatom 158 -12 5 0 0 0 - - -;
#X obj 194 96 send freq;
#X connect 0 0 1 0;
#X connect 1 0 45 0;
#X connect 2 0 1 1;
#X connect 3 0 45 1;
#X connect 4 0 45 2;
#X connect 5 0 6 0;
#X connect 6 0 41 0;
#X connect 7 0 6 1;
#X connect 8 0 41 1;
#X connect 9 0 41 2;
#X connect 11 0 10 0;
#X connect 12 0 48 0;
#X connect 13 0 14 0;
#X connect 14 0 42 0;
#X connect 15 0 14 1;
#X connect 16 0 42 1;
#X connect 17 0 42 2;
#X connect 18 0 19 0;
#X connect 20 0 21 0;
#X connect 21 0 43 0;
#X connect 22 0 21 1;
#X connect 23 0 43 1;
#X connect 24 0 43 2;
#X connect 25 0 26 0;
#X connect 27 0 28 0;
#X connect 28 0 44 0;
#X connect 29 0 28 1;
#X connect 30 0 44 1;
#X connect 31 0 44 2;
#X connect 32 0 33 0;
#X connect 34 0 35 0;
#X connect 35 0 46 0;
#X connect 36 0 35 1;
#X connect 37 0 46 1;
#X connect 38 0 46 2;
#X connect 39 0 40 0;
#X connect 41 0 11 0;
#X connect 42 0 18 0;
#X connect 43 0 25 0;
#X connect 44 0 32 0;
#X connect 45 0 12 0;
#X connect 46 0 39 0;
#X connect 47 0 41 3;
#X restore 187 -139 pd random;
#X obj -49 159 s metro;
#X obj 61 -155 r metro-speed;
#X obj 873 355 loadbang;
#X msg 873 384 read -resize gmu.env.expdec.aif env;
#X text 88 453 charles.bascou@gmem.org;
#X obj 282 238 *~ 0.2;
#X obj 327 238 *~ 0.2;
#X floatatom 353 215 5 0 0 0 - - -;
#X obj 263 276 overdrive~;
#X obj 336 277 overdrive~;
#X obj 428 237 *~ 0.2;
#X obj 473 237 *~ 0.2;
#X floatatom 499 214 5 0 0 0 - - -;
#X obj 415 277 overdrive~;
#X obj 482 276 overdrive~;
#X obj 580 235 *~ 0.2;
#X obj 625 235 *~ 0.2;
#X floatatom 651 212 5 0 0 0 - - -;
#X obj 561 273 overdrive~;
#X obj 634 274 overdrive~;
#X obj 238 378 *~ 0.2;
#X obj 283 378 *~ 0.2;
#X obj 299 405 env~;
#X floatatom 299 433 5 0 0 0 - - -;
#X obj 360 380 *~ 0.2;
#X obj 405 380 *~ 0.2;
#X obj 421 407 env~;
#X floatatom 421 435 5 0 0 0 - - -;
#X obj 493 378 *~ 0.2;
#X obj 538 378 *~ 0.2;
#X obj 554 405 env~;
#X floatatom 554 433 5 0 0 0 - - -;
#X obj 238 412 dac~ 4 6;
#X obj 360 414 dac~ 8 7;
#X obj 493 412 dac~ 5 3;
#X msg 434 156 grain 0 10 0.5 1 400 0 0 0 0;
#X msg 435 137 grain 0 10 1 1 1000 0.2 1 0 0;
#X obj 132 141 synGranul~ env 8;
#X obj 21 14 osc~;
#X floatatom 17 -27 5 0 0 0 - - -;
#X msg 31 132 nvoices 512;
#X obj -9 52 edge~;
#X obj -43 67 bng 15 250 50 0 empty empty empty 17 7 0 10 -262144 -1
-1;
#X obj -50 9 max~;
#X msg 32 92 poll 1;
#X floatatom 332 158 5 0 0 0 - - -;
#X obj 326 104 route list;
#X obj 327 127 route voices;
#X obj 118 287 overdrive~;
#X obj 191 288 overdrive~;
#X connect 2 0 10 0;
#X connect 3 0 2 0;
#X connect 4 0 88 0;
#X connect 5 0 89 0;
#X connect 7 0 4 1;
#X connect 7 0 5 1;
#X connect 9 0 77 0;
#X connect 10 0 1 0;
#X connect 11 0 9 0;
#X connect 12 0 9 1;
#X connect 13 0 6 0;
#X connect 14 0 6 1;
#X connect 14 0 18 0;
#X connect 15 0 48 0;
#X connect 15 0 49 0;
#X connect 15 0 53 0;
#X connect 15 0 54 0;
#X connect 15 0 58 0;
#X connect 15 0 59 0;
#X connect 15 0 88 0;
#X connect 15 0 89 0;
#X connect 16 0 17 0;
#X connect 17 0 13 1;
#X connect 17 0 14 1;
#X connect 17 0 69 1;
#X connect 17 0 68 1;
#X connect 17 0 65 1;
#X connect 17 0 64 1;
#X connect 17 0 61 1;
#X connect 17 0 60 1;
#X connect 18 0 19 0;
#X connect 21 0 23 0;
#X connect 22 0 21 0;
#X connect 23 0 20 0;
#X connect 24 0 77 1;
#X connect 25 0 77 2;
#X connect 26 0 77 3;
#X connect 27 0 77 4;
#X connect 28 0 77 5;
#X connect 29 0 77 6;
#X connect 36 0 37 0;
#X connect 37 0 15 0;
#X connect 41 0 12 0;
#X connect 42 0 43 0;
#X connect 43 0 1 0;
#X connect 45 0 48 0;
#X connect 46 0 49 0;
#X connect 47 0 45 1;
#X connect 47 0 46 1;
#X connect 48 0 60 0;
#X connect 49 0 61 0;
#X connect 50 0 53 0;
#X connect 51 0 54 0;
#X connect 52 0 50 1;
#X connect 52 0 51 1;
#X connect 53 0 64 0;
#X connect 54 0 65 0;
#X connect 55 0 58 0;
#X connect 56 0 59 0;
#X connect 57 0 55 1;
#X connect 57 0 56 1;
#X connect 58 0 68 0;
#X connect 59 0 69 0;
#X connect 60 0 72 0;
#X connect 61 0 62 0;
#X connect 61 0 72 1;
#X connect 62 0 63 0;
#X connect 64 0 73 0;
#X connect 65 0 66 0;
#X connect 65 0 73 1;
#X connect 66 0 67 0;
#X connect 68 0 74 0;
#X connect 69 0 70 0;
#X connect 69 0 74 1;
#X connect 70 0 71 0;
#X connect 75 0 77 0;
#X connect 76 0 77 0;
#X connect 77 0 4 0;
#X connect 77 1 5 0;
#X connect 77 2 45 0;
#X connect 77 3 46 0;
#X connect 77 4 50 0;
#X connect 77 5 51 0;
#X connect 77 6 55 0;
#X connect 77 7 56 0;
#X connect 77 8 86 0;
#X connect 78 0 77 0;
#X connect 78 0 83 0;
#X connect 79 0 78 0;
#X connect 80 0 77 0;
#X connect 81 0 40 0;
#X connect 81 0 82 0;
#X connect 83 0 81 0;
#X connect 84 0 77 0;
#X connect 86 0 87 0;
#X connect 87 0 85 0;
#X connect 88 0 13 0;
#X connect 89 0 14 0;
